<svg xmlns="http://www.w3.org/2000/svg" viewBox="0 0 1000 571.5" style="enable-background:new 0 0 1000 571.5" xml:space="preserve"><g transform="matrix(3.79836 0 0 3.79836 -498.793 -217.02)"><linearGradient id="a" gradientUnits="userSpaceOnUse" x1="216.892" y1="147.242" x2="415.768" y2="147.242" gradientTransform="matrix(5.0207 0 0 -2.8736 -957.428 555.484)"><stop offset=".006" style="stop-color:#ffbe00"/><stop offset=".253" style="stop-color:#fff9c6"/><stop offset=".297" style="stop-color:#f9eeb4"/><stop offset=".385" style="stop-color:#ead187"/><stop offset=".508" style="stop-color:#d3a440"/><stop offset=".596" style="stop-color:#c18209"/><stop offset=".824" style="stop-color:#ebc464"/><stop offset=".871" style="stop-color:#f5d378"/><stop offset="1" style="stop-color:#fff9c6"/></linearGradient><path d="M391.5 69.7c-.8-3.7-3.1-6.9-6.4-8.8-2.8-1.3-5.9-1.8-9-1.7-8.9 0-20.2 1.6-38.1 2.3-33.3 1.3-86.8-4.1-120.3-4.4-30.5-.2-51.3.1-62.6 8.5-6.1 4.6-23.6 21.2-23.6 70 0 16.2 3 38.4 13.6 56.4 3.5 6 9.7 12.6 13.7 14.2 4.7 1.9 10.9 1.8 17.8-.4 12.9-4.2 36.2-13.9 68.9-17.8 47-5.6 84.6-10.8 120.6-29.9 13-6.4 22.4-18.2 25.7-32.3 1.5-6.4 2.6-19.6 2.6-33.5-.3-7.6-1.3-15.2-2.9-22.6z" style="fill:url(#a)"/><path d="M391.9 71.3c-.4-3.4-2.3-6.4-5.2-8.3-2.8-1.3-5.9-1.9-9-1.7-8.9 0-21.7 3.2-39.6 3.9-33.3 1.3-72-.6-105.5-.9-33.5-.2-62.3 1.3-76.8 9.7-9.3 5.4-24.4 23.5-24.4 61.2 0 13.6 1.1 35 13.9 56.9 2.9 5 5.3 7.3 8.6 7.8 3.6.6 8.6-1.1 13.8-2.9 12.8-4.3 34.4-12.2 76.3-16.7 37.7-4 85.1-9.8 119.3-26.8 13.7-5.8 24-17.4 28.1-31.6 1.8-6.1 3.2-14.9 3.2-28.3-.2-7.2-1.1-14.8-2.7-22.3z" style="fill:#d9000d"/><path d="M159.3 126.8c-2.7-16.5-5.5-22.9-9.2-26.3-.7-.6-1.3-.5-1.5.5-1.7 9.4 1.9 17.9 6.4 39 1.8 8.8 2.5 17.8 2.2 26.8 0 .8.7 1 .9.1 2.3-8.9 2.9-29.1 1.2-40.1zM268 143.7c-10.3 4.4-21.1 7.7-32.1 10-17.9 3.9-48.3 6.6-63.1 22.5-.6.6-.1 1.1.6.7 4.9-3.2 20.7-11.4 54.9-14.6 25.4-2.1 37.6-12.7 40.3-17.7.4-.8.1-1.2-.6-.9zm-29.7 27.8c-19.9-3.8-44.6-.3-51.8 3.5-.5.3-.4.9.3.7 8.9-2.3 18.2-2.7 27.3-1 8.1 1.7 16.6.8 24.3-2.4.3-.3.4-.7-.1-.8zM214 118.1c-1.4-4.1-4.9-5.7-12.6-2.3 4.7-4.8 7.1-11.3 6.7-18-1.2-8.4-6.8-7.1-11.3-5.5-4.3 1.5-11.6 7.4-15.2 12.2 1.5-9.4 3.6-18.8 6.4-27.9.6-1.8-.2-2.2-1.8-.7-6.5 6.3-11.9 17.5-14.4 25.1-4.2 12.9-3.9 18.3-5.8 42.7-1.4 17.9-2.9 31.1-6.9 37.8-.3.6.2.9.8.4 4.2-4.2 7.3-9.4 9-15.1 43.8-8.4 47.4-42 45.1-48.7zm-36 6.6c1.1-8.8 4.7-21.4 19.4-24.1 1.8-.3 2.5.5 2.2 1.8-2.1 13.8-10.3 19.6-20.4 23.2-1 .4-1.4.1-1.2-.9zm-6.2 35.8c-.7.2-1.1 0-.9-1 2.2-11.9 4.7-20.6 8.8-25 5.2-5.3 12-8.7 19.4-9.6 4.9-.8 4.7.6 3.8 4.9-3.3 16.9-17.4 27.5-31.1 30.7zM378.3 90c-1.2 1.7-2.7 3.1-4.4 4.3-.1-1.5-.6-2.8-1.5-4-2.3-2.7-6.6-1.5-9 0-7.7 4.9-8.6 13.1-9.1 16.3-1.8 2.8-4.3 5.1-7.3 6.6-2.4 1-4.6 1.4-4.4-3.3.2-3.8 2.7-10.5 5.2-12.8.9-.8 2.8-1.6 3 .3.1.9-.2 1.2-.2 2.1 0 .9.6 1.3 1.5 1.1 1.2-.2 2.6-2.7 2.7-4.8 0-2.3-1.6-3.2-3.8-3.2-3.1 0-6.9 2.1-10.3 6.4-2.6 3.5-4.2 7.6-4.7 11.9-1.8 2.7-4.3 5-7.2 6.5-2.4 1-4.6 1.4-4.4-3.3.2-3.8 2.7-10.5 5.2-12.8.9-.8 2.8-1.6 3 .3.1.9-.2 1.2-.2 2.1 0 .9.6 1.3 1.5 1.1 1.2-.2 2.6-2.7 2.7-4.8 0-2.3-1.6-3.2-3.8-3.2-3.1 0-6.9 2.1-10.3 6.4-3 4.1-4.7 9-4.7 14-1.2 2.1-4.5 5.2-5.1 4.1-.8-1.3.6-6 1.4-10.9.2-1.4.5-2.1.7-3.5.3-1.9-1-3.7-2.9-4.1-2.2-.8-3.1.7-3.5 3.5-.4 2.7-.8 5.3-1.5 7.9-.9 3-2.3 5.8-4.2 8.3-2.7 3.3-3.8 2.1-2.9-2.6.3-1.8 1.9-9.5 2-10.4.3-1.9-1-3.8-2.9-4.2-2.2-.8-2.9.6-3.4 3-.3 1.5-2.5 13.3-2.5 13.3-1.5 4.8-4.7 5.3-5.7 4.6-.8-.5-.5-3.4.5-9.2 2.2-12.7 3.1-18.8 3.2-21.7.1-1.9-1.3-3.5-3.1-3.7-2.8-.6-2.7 1.6-3.1 4.2-.2 1.8-.9 7.3-2 12.2-2.7-.7-5.6 0-7.7 1.8-4.6 3.7-7.6 8.9-8.5 14.7-.2 1.3-.2 2.7-.2 4-.6 1.9-3.9 4.9-4.5 3.7-.8-1.3.6-6 1.4-10.9.2-1.4.5-2.1.7-3.5.3-1.9-1-3.7-2.9-4.1-2.2-.8-3.1.7-3.5 3.5-.4 2.7-.8 5.3-1.5 7.9-.9 3-2.3 5.8-4.2 8.3-2.7 3.2-3.8 2.1-2.9-2.6.3-1.8 1.9-9.5 2-10.4.3-1.9-1-3.8-2.9-4.2-2.2-.8-2.9.6-3.4 3-.3 1.5-2.5 13.3-2.5 13.3-1.5 4.8-4.8 5.5-5.7 4.6-1.5-1.5-.4-6.3.6-11.8.8-4.6-.9-9.4-9.4-6.2-3.3 1.3-9.8 6.1-11.8 16.4-.7 3.7-.3 10.7 7.1 9.8 3.3-.7 6.1-2.9 7.4-6 .9 3 3.5 3.8 6.3 2.8 2.5-1.1 4.5-2.9 5.8-5.3.5 3 4.6 3.6 7.2 2.3 2.3-1.3 4.2-3.2 5.5-5.5.5 3.3 4.2 3.7 6.5 3 2.7-.8 4.1-3 5.7-5 1.1 2.5 4.3 3.1 7.1 2.5 3.3-.7 4.9-3.3 6.4-5.7.6 3 4.1 3.5 6.5 2.6 2.5-1.1 4.5-3 5.7-5.4.5 3 4.6 3.6 7.2 2.3 2.3-1.3 4.2-3.2 5.5-5.5.5 3.3 4.2 3.7 6.5 3 2.6-1 4.7-2.9 6-5.2 1.9 3.6 6.6 2.9 9.5 1.5 3.3-1.7 6.1-4.2 8.2-7.3 1.4 5.6 7.2 4.6 10.1 3.2 3.3-1.7 6.2-4.2 8.2-7.4.4 1.8 1.6 3.3 3.3 4 3.4 1.5 8.1-.5 10.4-2.8 2.6-2.6 4.4-5.9 5.1-9.5.3-1.1.4-2.1.6-3.2 1.9-1.2 3.4-2.9 4.4-5 1.8-2.9 1.4-5.3.2-3.7zM226 139.3c-2.2 2.3-3.7 2.1-3.9-1.4-.2-4.2 1.6-11.3 6.5-14.5 2-1.3 2.3.1 2.3.6.5 5.5-1.3 11-4.9 15.3zm55.7-26.1c0 2.4-1 10.7-5.3 15.3-1.6 1.8-3.5 2.3-3.5-2 0-4 2-11.4 6.9-14.4 2.1-1.2 1.9.7 1.9 1.1zm86.6-19.6c.3 1 .5 2.1.4 3.2-1.1.4-2.4.4-3.5 0-1.7-1.2.5-3.2 1-3.6 1.2-1 1.7-.4 2.1.4zm-1.7 13.1c-3.2 6-4.5 4.1-5 1.6-.5-3.4-.1-6.9 1.2-10.1.3.4.7.8 1 1.1 1.4 1 3 1.4 4.7 1.3-.4 2.1-1 4.2-1.9 6.1zm10.4 2.4h.4c.3 0 .6.2.6.5s.1.5.2.7h.8c-.1-.2-.2-.5-.2-.8-.1-.4-.2-.7-.6-.8.4-.1.6-.4.6-.7 0-.3-.1-.5-.3-.7-.3-.2-.7-.3-1.1-.2-.4 0-.8 0-1.2.1v3.1h.7l.1-1.2zm0-1.4h.4c.5 0 .7.2.7.5s-.3.5-.7.5h-.4v-1zm.5-2.1c-1.7-.1-3.2 1.3-3.2 3-.1 1.7 1.3 3.2 3 3.2h.2c1.7 0 3.1-1.4 3.1-3.1 0-1.7-1.4-3.1-3.1-3.1zm0 .6c1.4-.1 2.5 1 2.6 2.4.1 1.4-1 2.5-2.4 2.6-1.4.1-2.5-1-2.6-2.4v-.1c-.1-1.3 1-2.4 2.4-2.5-.1 0-.1 0 0 0z" style="fill:#fff"/></g></svg>