<svg version="1.1" id="Camada_1" xmlns="http://www.w3.org/2000/svg" xmlns:xlink="http://www.w3.org/1999/xlink" x="0" y="0" viewBox="0 0 1000 476.1" style="enable-background:new 0 0 1000 476.1" xml:space="preserve"><style>.st1,.st2,.st3,.st4{fill-rule:evenodd;clip-rule:evenodd;fill:#f49200}.st2,.st3,.st4{fill:#ea590e}.st3,.st4{fill:#e74013}.st4{fill:#00378b}.st13,.st19,.st20,.st22,.st5,.st6,.st9{fill-rule:evenodd;clip-rule:evenodd;fill:#005da9}.st13,.st19,.st20,.st22,.st6,.st9{fill:#7e1c7e}.st13,.st19,.st20,.st22,.st9{fill:#cd051b}.st13,.st19,.st20,.st22{fill:#004a99}.st19,.st20,.st22{fill:#ec650a}.st20,.st22{fill:#f07c00}.st22{fill:#fec200}</style><g id="surface1"><path d="M235.1 337.3c45.4-17 89.5-40.3 128.3-71-34.7-13.3-67.5-31.6-97.2-53.7-8.3 43.1-18.9 85.5-31.1 124.7z" style="fill-rule:evenodd;clip-rule:evenodd;fill:#e51e15"/><path class="st1" d="M381.4 174.2c-19.6-20.7-34.8-46.2-45.5-74-19-2-36.5-5.3-53.1-10.1-3 40-8.7 81.6-16.6 122.6 38.6-5.4 77.5-18 115.2-38.5z"/><path class="st2" d="M266.2 212.6c29.7 22.1 62.5 40.4 97.2 53.7 22-17.4 42.2-37.3 59.9-59.7-15.7-8.4-29.7-19.4-41.9-32.4-37.7 20.5-76.6 33.1-115.2 38.4z"/><path class="st3" d="M266.2 212.6c-22.9-17-44-36.3-62.7-57.2-14.8 18.9-31.5 36.6-49.4 52.3 36 8.3 73.9 10.1 112.1 4.9z"/><path class="st4" d="M181 469.1c53.5 13.3 108.2 7.1 155.8-14.6-25.9-2.7-51.9-7.9-77.6-15.4-24.5 12.1-50.7 22.2-78.2 30z"/><path class="st4" d="M111.1 369.1c17.9 40 41.3 74.8 70 100 8.2-14.6 16.3-31.2 24.1-49.3-33-13.8-64.7-31-94.1-50.7z"/><path class="st5" d="M181 469.1c27.5-7.8 53.6-17.9 78.2-30-18.3-5.3-36.4-11.8-54.2-19.3-7.7 18.1-15.7 34.7-24 49.3z"/><path class="st6" d="M235.1 337.3c22.7 28.5 47.1 53.9 72.3 74.5 32.5-21 61.6-45.4 86.9-71.8-48.6 12.6-104.4 11.1-159.2-2.7z"/><path class="st6" d="M77.4 257.7c7 38.9 18.3 77 33.7 111.4 40.1-6 82.6-16.3 124-31.8-56.4-14.2-111.8-41.4-157.7-79.6z"/><path d="M235.1 337.3c-31-39-58.9-83.7-81.1-129.6-24 21.1-50.1 38.5-76.6 50 45.9 38.2 101.3 65.4 157.7 79.6z" style="fill-rule:evenodd;clip-rule:evenodd;fill:#b5151e"/><path d="M68.8 174c.7 27.6 3.5 55.8 8.6 83.7 26.5-11.6 52.6-29 76.6-50-29.9-6.9-58.6-18.2-85.2-33.7z" style="fill-rule:evenodd;clip-rule:evenodd;fill:#dc0018"/><path class="st9" d="M266.2 212.6c-38.2 5.3-76.1 3.4-112.1-4.9 22.2 45.9 50 90.6 81.1 129.6 12.1-39.2 22.7-81.6 31-124.7z"/><path d="M363.4 266.3c24.2 9.3 49.4 16.2 75.1 20.2 14.6-20.6 27-41.8 37.1-63.2-19.1-2.4-36.5-8.2-52.3-16.7-17.7 22.4-37.9 42.2-59.9 59.7z" style="fill-rule:evenodd;clip-rule:evenodd;fill:#ee7105"/><path d="M77.4 257.7C50.2 235 26.3 208.5 7.6 178.5c-8.2 31.6-9.6 63.6-5 94.4 24.3 1.5 49.7-4.2 74.8-15.2z" style="fill-rule:evenodd;clip-rule:evenodd;fill:#92127c"/><path d="M77.4 257.7c-5.1-27.9-7.9-56.2-8.6-83.7-16.8-9.8-32.7-21.2-47.6-34.2-2.5 5.5-4.7 11.1-6.8 16.8-2.6 7.3-4.9 14.6-6.8 21.9 18.7 30.1 42.6 56.6 69.8 79.2z" style="fill-rule:evenodd;clip-rule:evenodd;fill:#c50c1c"/><path class="st13" d="M2.6 272.9c5.5 36.9 19.6 72 41 102.4 21.2-.7 44-2.7 67.5-6.2-42-28-79.2-61-108.5-96.2z"/><path d="M77.4 257.7c-25.1 10.9-50.5 16.6-74.8 15.2 29.3 35.2 66.5 68.2 108.5 96.2-15.4-34.4-26.7-72.5-33.7-111.4z" style="fill-rule:evenodd;clip-rule:evenodd;fill:#023187"/><path class="st5" d="M181 469.1c-28.7-25.1-52.1-60-70-100-23.5 3.5-46.2 5.5-67.5 6.2 27 38.3 65.6 69.1 113 86.4 8.2 2.9 16.4 5.4 24.5 7.4z"/><path class="st13" d="M259.3 439.1c25.7 7.5 51.7 12.8 77.6 15.4 6.5-3 12.9-6.3 19.2-9.8-16.4-8.7-32.6-19.8-48.6-32.9-15.4 9.9-31.4 19-48.2 27.3z"/><path d="M394.4 340c26.3-6.8 50.5-17.7 71.4-33 1.7-5.7 3.2-11.3 4.5-17-10.7-.7-21.3-1.9-31.8-3.5-13 18.4-27.8 36.4-44.1 53.5z" style="fill-rule:evenodd;clip-rule:evenodd;fill:#df3216"/><path class="st1" d="M475.6 223.3c-10.1 21.4-22.5 42.6-37.1 63.2 10.5 1.7 21.1 2.8 31.8 3.5 5-22.3 6.7-44.7 5.3-66.7z"/><path d="M307.4 411.8c16 13 32.2 24.1 48.6 32.9 47.3-26.9 85.6-70.2 105.6-125.3 1.5-4.1 2.9-8.3 4.1-12.4-20.9 15.3-45.2 26.2-71.4 33-25.3 26.5-54.4 50.9-86.9 71.8z" style="fill-rule:evenodd;clip-rule:evenodd;fill:#9b1e3d"/><path d="M282.8 90c16.6 4.8 34.1 8.1 53.1 10.1-10.6-27.6-16.8-57.3-18.4-86.4-10.9-3.9-21.9-6.9-33-9.1 1.1 27.1.5 55.8-1.7 85.4z" style="fill-rule:evenodd;clip-rule:evenodd;fill:#fab000"/><path d="M282.8 90c2.2-29.6 2.9-58.4 1.8-85.4-5.7-1.1-11.5-2.1-17.2-2.8 0 24-6.4 50-17.4 76.1 10.5 4.8 21.4 8.8 32.8 12.1z" style="fill-rule:evenodd;clip-rule:evenodd;fill:#f69c00"/><path class="st3" d="M68.8 174c26.5 15.5 55.3 26.8 85.2 33.7-27.2-56-46-113.8-52.1-164.9-7.3 5.1-14.4 10.6-21.1 16.5-9 34.2-13 73.7-12 114.7z"/><path class="st19" d="M203.4 155.4c-34.2-38.2-60.6-82-76.2-127.9-8.7 4.6-17.2 9.7-25.3 15.4 6.2 51.1 25 108.9 52.1 164.9 17.9-15.8 34.6-33.5 49.4-52.4z"/><path class="st1" d="M249.9 77.9c-31.3-14.1-60.1-34.9-90.7-64.4-11 3.9-21.6 8.5-31.9 13.9 15.6 46 42 89.8 76.2 127.9 19.2-24.5 35.2-51 46.4-77.4z"/><path class="st20" d="M335.9 100.2c10.7 27.8 25.9 53.4 45.5 74 23.1-12.6 45.6-28.1 67.3-46.8-4.7-8.9-9.9-17.6-15.7-25.9-36.9 1.9-68.7 1.7-97.1-1.3z"/><path class="st1" d="M423.3 206.6c13.6-17.2 25.7-36 35.9-56.4-3.1-7.8-6.6-15.4-10.5-22.8-21.7 18.7-44.3 34.2-67.3 46.8 12.3 12.9 26.3 24 41.9 32.4z"/><path class="st2" d="M475.6 223.3c-1.6-25.2-7.2-49.9-16.4-73.1-10.2 20.4-22.3 39.2-35.9 56.4 15.8 8.4 33.2 14.2 52.3 16.7z"/><path class="st20" d="M266.2 212.6c7.9-40.9 13.6-82.5 16.6-122.6-11.4-3.3-22.3-7.3-32.9-12.1-11.2 26.4-27.2 52.9-46.5 77.4 18.8 21 39.8 40.3 62.8 57.3z"/><path class="st4" d="M235.1 337.3c-9.2 29.7-19.3 57.6-30 82.5 17.8 7.5 35.9 13.9 54.2 19.3 16.8-8.2 32.8-17.4 48.1-27.2-25.2-20.7-49.6-46.1-72.3-74.6z"/><path d="M235.1 337.3c-41.5 15.6-83.9 25.9-124 31.8 29.4 19.6 61.1 36.8 94 50.7 10.7-24.9 20.8-52.8 30-82.5z" style="fill-rule:evenodd;clip-rule:evenodd;fill:#9b0c7c"/><path class="st9" d="M235.1 337.3c54.8 13.8 110.5 15.3 159.2 2.7 16.3-17.1 31.1-35.1 44.1-53.5-25.7-4.1-50.9-10.9-75.1-20.2-38.6 30.7-82.8 54-128.2 71z"/><path class="st19" d="M80.8 59.3C56 81 35.5 108.2 21.2 139.8 36 152.8 52 164.2 68.8 174c-1-41 3-80.5 12-114.7z"/><path class="st22" d="M433 101.5c-27-38.7-65.8-69.7-113.5-87.1-.6-.2-1.3-.5-1.9-.7 1.6 29.2 7.7 58.9 18.4 86.4 28.3 3.1 60.1 3.3 97 1.4zM267.3 1.8c-37.1-4.6-74.1-.3-108.1 11.7 30.6 29.5 59.4 50.4 90.7 64.4 11-26.1 17.4-52.1 17.4-76.1z"/><defs><path id="SVGID_1_" d="M543.4 105.3H1000v265.6H543.4z"/></defs><clipPath id="SVGID_2_"><use xlink:href="#SVGID_1_" style="overflow:visible"/></clipPath><g style="clip-path:url(#SVGID_2_)"><path d="M922.5 188c0-13.7.5-22.1 4.5-30.3 11.7 1.5 34 4.3 47.4.5 24.1-6.9 25.7-35.5 25.4-51.9-13.6-1.1-30.4-.8-47.3 1.7-45.7 6.5-79.4 39.7-79.4 93.9v167.8h49.4V242.2h33.8c23.3 0 26.6-16.1 26.6-40h-60.3V188zm-131.6 97.6c0-14.9 0-29.8 3.5-39 10.7 1.3 26.6 2.4 36.2-.5 24.4-7.4 24.1-34.8 24.1-50.7-13.9-.9-27-.3-42 2-41.8 6.4-71.3 38.2-71.3 92.4v79.9h49.4v-84.1zm-128.6 41.2c-40.2 10.4-68.5-10.9-68.5-50.1v-34.5c8.7-5.2 17.9-8.7 31.5-8.7 47.7 0 57.1 50.6 37 93.3zm-23.1-134.3c-17.9 0-34.5 6.7-45.4 13.7v-99.3c-19.6-.3-40.7 9.2-49.7 17.1v151.9c0 62.1 39 94.3 88.1 94.3 48.9 0 89.1-40 89.1-93.8.1-43.9-30.7-83.9-82.1-83.9z" style="fill-rule:evenodd;clip-rule:evenodd;fill:#1b1918"/></g></g></svg>