<?xml version="1.0" encoding="utf-8"?>
<!-- Generator: Adobe Illustrator 23.0.0, SVG Export Plug-In . SVG Version: 6.00 Build 0)  -->
<svg version="1.1" id="Camada_1" xmlns="http://www.w3.org/2000/svg" xmlns:xlink="http://www.w3.org/1999/xlink" x="0px" y="0px"
	 viewBox="0 0 2000 893.7" style="enable-background:new 0 0 2000 893.7;" xml:space="preserve">
<style type="text/css">
	.st0{fill-rule:evenodd;clip-rule:evenodd;fill:#161413;}
	.st1{fill-rule:evenodd;clip-rule:evenodd;fill:#00812E;}
</style>
<g>
	<path class="st0" d="M573,363.2c58.9,0,94.7,10.4,112.7,32.5c9.8,12,14.8,28,14.9,48.3c0.1,11.3-1.4,23.8-4.3,37.8l-40.4,195
		c-5.6,27-9,47.6-8.9,64.7c0,5.1,0.5,10.2,1.3,15.2H538c0-1.2-0.2-2.4-0.2-3.6c0-8.1,0.6-16.6,1.3-25.4l1.2-16h-6.1l-2.4,3.8
		c-19.8,31.9-64.8,51.6-103.4,51.6c-32,0-54.9-8.2-68.1-24.4c-14.5-17.9-18-45.8-10.3-83.1c15.1-72.8,48.2-103.6,131.2-122.2
		l55.1-12.5c32.7-7.2,48.5-21.6,54.3-49.8c3.2-15.5,1.5-27.4-5.1-35.6c-6.1-7.5-16-11.3-29.2-11.3c-29.5,0-45.2,15.2-54.9,53.2
		h-98.6C429.1,378.9,520.1,363.2,573,363.2z M571.7,563.9c0,0-2.2,2-6.5,3.7c-7,2.7-22.4,5.2-32,7.6c-7.4,1.8-15.8,4-24.8,7.8
		c-24.1,10.2-36.5,26.9-42.9,57.6c-3.7,18-1.6,32.6,6.4,42.3c5.9,7.3,14.7,11.1,25.2,11.1c43,0,56.5-41.2,62.9-72.2l12-58
		L571.7,563.9l-11.7,58L571.7,563.9L571.7,563.9z"/>
	<path class="st0" d="M967.6,722.3c-23.3-28.6-27.9-73.6-11.8-153.7c35.1-174.5,101.4-205.3,159.1-205.3c27.4,0,68.8,10.2,73.6,58.3
		l0.8,7.5h8c0,0,9.4-45.3,11.4-55.4H1316l-79.7,383c-18.9,91.5-77.7,137.1-185.5,137.1c-99.9,0-114.7-58.9-116.9-77.1
		c-0.8-6.9,1.5-27.3,1.5-27.3h104.4v0.1c0.1,9.3,0.8,23,3.9,26.9c4.3,5.3,7.9,11.6,24.5,11.6c22,0,43-6.3,53.3-56l17.8-85.9h-8.6
		l-2.4,4c-21.4,37-61.2,55.7-103.2,55.7C999.3,745.7,980.4,738.1,967.6,722.3z M1074.1,560c-11.7,56.8-11.2,78.6,0.3,92.7
		c5.7,7,14.2,10.4,26,10.4c32.6,0,48.5-19.8,65.1-99.7c11.8-57.2,13.1-93.6,1.7-107.5c-5.6-6.8-13.7-10.2-24.9-10.2
		C1108.6,445.7,1090.6,480.1,1074.1,560L1074.1,560z"/>
	<path class="st0" d="M1488,373.6c-3.8,18.5-76.7,370.8-79.2,383h-116.1c3.8-18.5,76.8-370.8,79.3-383H1488z"/>
	<path class="st0" d="M1701.3,245.8c-35.2,170.3-70.4,340.6-105.7,510.8h-116.1c3.9-18.8,103.1-498.4,105.7-510.8
		C1585.2,245.8,1701.3,245.8,1701.3,245.8z"/>
	<path class="st0" d="M1887.5,245.8c-3.9,18.8-103.2,498.4-105.8,510.8h-116.1c3.9-18.8,103.2-498.4,105.7-510.8H1887.5z"/>
	<path class="st0" d="M984.1,363.2c-38.1,0-83.3,26.6-105.5,69.4l-2.3,4.4h-8.5c0,0,10.2-49.4,13.1-63.5H871v0H760.6
		c0.8,4.8,1.3,9.8,1.3,15.2c0.1,12.3-1.7,26.5-4.8,43.5c-21.5,104-64.2,310.2-67.1,324.3h116.2c7.4-36,43.7-211.4,43.7-211.4
		c10.9-52.8,41.9-77.3,97.3-77.3c9.6,0,18,0.5,26.2,1.7c2.6-12.4,18.8-90.8,22-106.5C995.4,363.2,984.1,363.2,984.1,363.2z"/>
	<path class="st0" d="M22.8,736.7c-29-35.6-30.3-101.1-4.4-226C59.8,311,119.5,243.5,255.2,243.5c54.2,0,92.3,12.9,113.1,38.4
		c13.4,16.5,20.3,39,20.4,67.2c0.1,15.4-1.8,32.5-5.7,51.2l-5.5,26.7H263.1c0,0,8.5-54.5,8.4-66.5c-0.1-13.5-0.6-20.9-5.8-27.7
		c-5.4-7.1-13.3-12.7-25.8-12.7c-50.5,0-67.1,48.1-95.9,187.2c-22.3,108-30.3,157.5-13.1,178.7c6.5,8,16.4,11.9,30.2,11.9
		c39.8,0,55.5-34.1,75.5-129h115.2l-6,29.1c-24.2,117-92.8,176.4-204,176.4C81.6,774.4,43.8,762.4,22.8,736.7L22.8,736.7z"/>
	<path class="st0" d="M1912.2,245.6h34.9l-1.2,5.6h-14.4l-10.3,49.9h-6.2l10.3-49.9H1911L1912.2,245.6z"/>
	<path class="st0" d="M1989.2,245.6h10.8l-11.5,55.5h-6.1l9.5-45.7c0.5-2.4,1.1-4.7,1.4-7h-0.1c-1.3,3.3-2.3,5.3-3.3,7.5l-21,45.3
		h-7.3l-2.1-45.9c-0.1-1.9-0.2-3.8-0.2-6.8h-0.2c-0.5,2.4-0.8,4.8-1.3,7.2l-9.4,45.5h-6.1l11.5-55.5h10.9l1.9,43.3
		c0.1,2.4-0.1,4.6-0.5,8.2h0.2c1-2.8,1.9-5.6,3.1-8.3L1989.2,245.6z"/>
	<path class="st1" d="M1498,328.4c9.1-210.5-244.7-368.6-481.7-319.4C779.5,58.1,665.1,264.3,635.2,328h38.7
		c51.8-87.2,104.3-154.9,193.8-180.1c56.8-16,101.5-12.3,211.4,49c50.6,28.3,165.2,113.2,288.3,130.2
		C1420.8,334.4,1498,328.4,1498,328.4L1498,328.4z"/>
</g>
</svg>
