<?xml version="1.0" encoding="UTF-8" standalone="no"?>
<svg
   xmlns:dc="http://purl.org/dc/elements/1.1/"
   xmlns:cc="http://creativecommons.org/ns#"
   xmlns:rdf="http://www.w3.org/1999/02/22-rdf-syntax-ns#"
   xmlns:svg="http://www.w3.org/2000/svg"
   xmlns="http://www.w3.org/2000/svg"
   xmlns:xlink="http://www.w3.org/1999/xlink"
   xmlns:sodipodi="http://sodipodi.sourceforge.net/DTD/sodipodi-0.dtd"
   xmlns:inkscape="http://www.inkscape.org/namespaces/inkscape"
   version="1.1"
   width="700"
   height="700"
   id="svg72"
   viewBox="0 0 700 700"
   sodipodi:docname="elma-chips-logo.svg"
   inkscape:version="0.92.0 r15299"
   inkscape:export-filename="C:\Users\suitedoalex\sites\elma-chips-logo-0.png"
   inkscape:export-xdpi="561.73712"
   inkscape:export-ydpi="561.73712">
  <metadata
     id="metadata78">
    <rdf:RDF>
      <cc:Work
         rdf:about="">
        <dc:format>image/svg+xml</dc:format>
        <dc:type
           rdf:resource="http://purl.org/dc/dcmitype/StillImage" />
        <dc:title></dc:title>
      </cc:Work>
    </rdf:RDF>
  </metadata>
  <defs
     id="defs76" />
  <sodipodi:namedview
     pagecolor="#ffffff"
     bordercolor="#666666"
     borderopacity="1"
     objecttolerance="10"
     gridtolerance="10"
     guidetolerance="10"
     inkscape:pageopacity="0"
     inkscape:pageshadow="2"
     inkscape:window-width="1920"
     inkscape:window-height="1017"
     id="namedview74"
     showgrid="false"
     inkscape:zoom="0.6294534"
     inkscape:cx="146.73573"
     inkscape:cy="211.04072"
     inkscape:window-x="-8"
     inkscape:window-y="-8"
     inkscape:window-maximized="1"
     inkscape:current-layer="Layer1000" />
  <g
     id="Layer1000"
     transform="translate(0,-141.88977)">
    <g
       id="Layer1001"
       transform="matrix(3.1092576,0,0,3.1092576,-579.20443,-816.93574)"
       inkscape:export-filename="C:\Users\suitedoalex\sites\elma-chips-logo-4.png"
       inkscape:export-xdpi="71.447166"
       inkscape:export-ydpi="71.447166">
      <g
         id="Layer1002">
        <path
           d="m 344.1702,372.6386 0.2976,0.0553 0.9702,0.1995 0.9721,0.2191 0.9732,0.239 0.8161,0.2169 0.1285,0.0181 0.2653,0.0513 0.3957,0.1117 0.5458,0.2453 0.7125,0.5234 0.3338,0.4883 0.0273,0.042 0.0736,0.0229 0.3877,0.1954 0.2478,0.1484 0.2099,0.1445 0.1901,0.1445 0.1759,0.1484 0.1655,0.1513 0.1589,0.1594 0.1326,0.1451 0.0933,0.1084 0.0987,0.1172 0.1393,0.1792 0.1685,0.2464 0.1714,0.3053 0.1514,0.3405 0.1169,0.3559 0.0765,0.3307 0.1066,0.084 0.1022,0.0785 0.154,0.1217 0.2113,0.1797 0.2556,0.2513 0.2749,0.3258 0.2588,0.3918 0.258,0.5147 0.1944,0.6705 0.0218,0.2603 0.3857,0.4351 0.4603,0.7356 0.3335,1.1625 -0.231,1.9016 0.5296,0.7463 0.5682,0.9186 0.519,0.9656 0.4689,1.0118 0.4185,1.0556 0.3686,1.0993 0.3189,1.1428 0.2689,1.1858 0.2197,1.2281 0.1704,1.2714 0.13,1.4064 -0.006,0.6962 -0.0144,0.5683 -0.0237,0.566 -0.033,0.5636 -0.0423,0.5622 -0.0516,0.559 -0.0605,0.5559 -0.0696,0.5543 -0.0788,0.5513 -0.0872,0.5478 -0.0963,0.5458 -0.1051,0.5429 -0.1138,0.5398 -0.122,0.5356 -0.1308,0.5332 -0.1392,0.5305 -0.1479,0.5268 -0.1557,0.5231 -0.1642,0.5191 -0.1719,0.5155 -0.1804,0.5125 -0.1879,0.5084 -0.1963,0.5046 -0.0259,0.0635 1.0354,0.069 1.0827,0.0831 1.0662,0.0935 1.0496,0.1038 1.0316,0.1147 1.0128,0.1251 0.9937,0.136 0.9745,0.1465 0.9544,0.1583 0.9335,0.1691 0.9124,0.1809 0.8911,0.1926 0.8687,0.2052 0.8454,0.2173 0.8225,0.23 0.7999,0.2438 0.7759,0.2578 0.7517,0.2722 0.7274,0.2878 0.704,0.3047 0.6789,0.3229 0.6534,0.3417 0.628,0.3631 0.6029,0.3865 0.5753,0.4123 0.5471,0.4404 0.5169,0.4722 0.8513,0.8912 0.8457,2.4075 0.5884,1.8229 0.5323,1.8122 0.477,1.8013 0.421,1.7908 0.3657,1.7796 0.3101,1.7689 0.2551,1.758 0.1995,1.7472 0.1446,1.7355 0.0896,1.7247 0.0351,1.7128 -0.0199,1.7014 -0.0739,1.6892 -0.128,1.6773 -0.1819,1.665 -0.2359,1.6524 -0.2887,1.6393 -0.3417,1.6263 -0.3939,1.6129 -0.4462,1.5996 -0.4977,1.5856 -0.5488,1.5717 -0.5992,1.5576 -0.6498,1.5437 -0.699,1.5294 -0.7486,1.5149 -0.7967,1.5006 -0.8451,1.4864 -0.8925,1.4718 -0.9395,1.4578 -1.4621,2.1398 -2.5365,1.066 -1.8175,0.6911 -1.8631,0.6386 -1.908,0.5859 -1.9532,0.5344 -1.9971,0.4828 -2.0413,0.4322 -2.0853,0.3816 -2.1288,0.332 -2.1723,0.2824 -2.2157,0.2335 -2.2587,0.1846 -2.3019,0.1367 -2.3443,0.0888 -2.3874,0.0413 -2.4298,-0.006 -2.4725,-0.0522 -2.5149,-0.0989 -2.5573,-0.1449 -2.5993,-0.1909 -2.6416,-0.2361 -2.6837,-0.2815 -2.7254,-0.3265 -2.767,-0.3711 -2.8089,-0.4155 -2.8505,-0.4597 -2.8921,-0.5035 -2.9332,-0.5475 -2.9745,-0.5909 -3.0153,-0.634 -3.0563,-0.677 -2.3731,-0.5517 -0.5419,0.1379 -1.2599,0.3148 -1.2654,0.3105 -1.2702,0.3058 -1.2746,0.3012 -1.2794,0.2961 -1.2827,0.2906 -1.2859,0.2846 -1.2882,0.2791 -1.291,0.2725 -1.2923,0.266 -1.2938,0.2591 -1.2946,0.252 -1.2948,0.2443 -1.2946,0.2367 -1.2939,0.2283 -1.2925,0.2204 -1.2912,0.2115 -1.2892,0.2027 -1.2868,0.1932 -1.2834,0.1838 -1.2804,0.1737 -1.2762,0.1637 -1.2722,0.1529 -1.2667,0.1425 -1.262,0.1312 -1.2562,0.1199 -1.2498,0.1078 -1.243,0.0962 -1.2366,0.0836 -1.2286,0.0709 -1.2215,0.0577 -1.8369,0.0667 -1.8128,0.0441 -1.7859,0.0224 -1.7571,9e-4 -1.7268,-0.0194 -1.6951,-0.0395 -1.6615,-0.0589 -1.6267,-0.0778 -1.5898,-0.0956 -1.5519,-0.1133 -1.5126,-0.1301 -1.4713,-0.1466 -1.4287,-0.1622 -1.3852,-0.1777 -1.3398,-0.1924 -1.2931,-0.2067 -1.2451,-0.2203 -1.1967,-0.2342 -1.1465,-0.2472 -1.0955,-0.2606 -1.0438,-0.2733 -0.9925,-0.2868 -0.9402,-0.3005 -0.8886,-0.3158 -0.8373,-0.332 -0.7881,-0.3518 -0.7404,-0.3759 -0.6965,-0.4073 -0.6556,-0.4502 -0.6164,-0.5108 -0.5739,-0.5972 -0.587,-0.8179 -0.7726,-2.0489 -0.5927,-1.718 -0.5365,-1.7158 -0.4808,-1.7142 -0.4243,-1.7121 -0.3682,-1.7098 -0.3119,-1.7069 -0.256,-1.7048 -0.1994,-1.7018 -0.1431,-1.6986 -0.0869,-1.6948 -0.0312,-1.6916 0.0251,-1.6872 0.0807,-1.6829 0.1366,-1.6782 0.192,-1.6737 0.2474,-1.6676 0.3021,-1.6623 0.3569,-1.6564 0.4113,-1.6509 0.4655,-1.6437 0.5187,-1.6376 0.5723,-1.6308 0.6249,-1.6243 0.6779,-1.6174 0.7301,-1.6104 0.7818,-1.603 0.8331,-1.5966 0.8846,-1.5892 0.9349,-1.5825 0.9858,-1.5755 1.5706,-2.3789 3.0372,-1.0688 2.1479,-0.6947 2.1713,-0.6421 2.1949,-0.5901 2.218,-0.538 2.2403,-0.4863 2.263,-0.4351 2.2854,-0.3843 2.3077,-0.3333 2.3293,-0.2833 2.3509,-0.2333 2.3724,-0.184 2.3939,-0.1347 2.4147,-0.0858 2.4357,-0.0374 2.4567,0.0105 2.4775,0.0586 2.4977,0.1058 2.5183,0.1529 2.5383,0.1994 2.5588,0.2459 2.5785,0.2918 2.5986,0.3376 2.6181,0.3826 2.6382,0.4279 2.6576,0.4724 2.6771,0.5168 2.6965,0.5608 2.7159,0.6045 2.4337,0.5765 -0.3899,-0.6463 -0.3934,-0.6877 -0.3779,-0.6982 -0.3614,-0.7074 -0.3458,-0.7172 -0.3292,-0.7267 -0.3125,-0.7359 -0.2953,-0.7442 -0.2782,-0.7527 -0.2604,-0.7608 -0.243,-0.7692 -0.2249,-0.7767 -0.2068,-0.7846 -0.1878,-0.7911 -0.1697,-0.7986 -0.1501,-0.8052 -0.1312,-0.8109 -0.1114,-0.8174 -0.092,-0.8235 -0.0718,-0.829 -0.0516,-0.8339 -0.0312,-0.839 -0.0109,-0.8634 0.0439,-1.7136 0.1309,-1.7119 0.2157,-1.6883 0.2981,-1.6624 0.3788,-1.6339 0.457,-1.6029 0.5329,-1.5694 0.6067,-1.5349 0.6787,-1.4966 0.7476,-1.4566 0.815,-1.4146 0.8801,-1.371 0.9431,-1.3245 1.0037,-1.2762 1.0625,-1.226 1.1192,-1.1738 1.1734,-1.119 1.2261,-1.0624 1.276,-1.0038 1.3246,-0.9432 1.3707,-0.8801 1.4148,-0.8151 1.4568,-0.7478 1.4969,-0.6787 1.5342,-0.6066 1.5699,-0.5332 1.6029,-0.457 1.6341,-0.3788 1.6623,-0.2981 1.6884,-0.2157 1.7119,-0.1309 1.7221,-0.044 0.3974,0.007 0.3431,0.009 0.3418,0.0114 0.3433,0.0137 0.3428,0.0168 0.3427,0.0195 0.3423,0.0227 0.343,0.0257 0.3434,0.0294 0.341,0.0325 0.3415,0.0358 0.3425,0.0398 0.3404,0.0433 0.3407,0.0471 0.3407,0.0513 0.3405,0.0551 0.3401,0.0598 0.3394,0.0639 0.3374,0.0683 0.3383,0.0728 0.3377,0.0779 0.3358,0.0822 0.3344,0.087 0.3361,0.0924 0.3344,0.0981 0.3323,0.1027 0.3323,0.1085 0.3311,0.114 0.3297,0.1197 0.3283,0.1254 0.3262,0.1312 0.3195,0.1345 0.471,0.2061 0.1526,0.0662 0.1542,0.0675 0.1522,0.0663 0.1502,0.0657 0.4302,0.1867 0.1947,0.1372 0.5086,0.1689 0.4813,0.2503 0.3943,0.2811 0.3144,0.2771 0.1829,0.1866 0.1398,0.1538 0.1231,0.143 0.1153,0.1385 0.1106,0.1369 0.1061,0.1333 0.1016,0.1295 0.0993,0.1269 0.0471,0.0604 0.4052,0.2591 0.547,0.3852 0.5476,0.794 0.2508,0.6183 0.1181,0.456 0.0556,0.3003 0.1922,0.2957 0.0813,0.1481 0.0352,0.0624 0.0485,0.086 0.0586,0.1036 0.0645,0.1152 0.0678,0.1216 0.0723,0.1322 z"
           style="fill:#ffffff;fill-rule:evenodd"
           id="path4"
           inkscape:connector-curvature="0" />
        <g
           id="Layer1003">
          <g
             id="Layer1004">
            <path
               d="m 225.6976,418.9389 c 21.7526,-7.9743 47.6298,-7.2405 76.925,0.7082 1.4017,-0.8363 2.8665,-1.5416 4.3832,-2.1412 4.976,4.7914 11.7331,7.7449 19.1585,7.7449 9.6128,0 18.1049,-4.9492 23.0626,-12.4293 13.825,-0.0511 25.4569,1.8661 29.1787,6.0638 6.8986,18.8697 4.3988,35.4262 -5.8883,50.0657 -17.6095,7.7678 -43.4206,7.1925 -76.3648,-0.6389 -13.2143,3.3868 -27.4965,6.1479 -40.1326,6.6809 -19.3587,0.8165 -34.6722,-2.2421 -36.7324,-5.7019 -6.8931,-17.5263 -4.4784,-34.2876 6.4101,-50.3522 z"
               style="fill:#e30016;fill-rule:evenodd"
               id="path6"
               inkscape:connector-curvature="0" />
            <defs
               id="defs16">
              <linearGradient
                 id="grad1">
                <stop
                   offset="0.0000%"
                   stop-color="#e30016"
                   stop-opacity="1.0000"
                   id="stop8" />
                <stop
                   offset="35.0000%"
                   stop-color="#b70814"
                   stop-opacity="1.0000"
                   id="stop10" />
                <stop
                   offset="100.0000%"
                   stop-color="#e30016"
                   stop-opacity="1.0000"
                   id="stop12" />
              </linearGradient>
              <linearGradient
                 xlink:href="#grad1"
                 id="grad2"
                 x1="130.95412"
                 y1="679.07684"
                 x2="130.95412"
                 y2="780.52051"
                 gradientTransform="scale(1.6449688,0.60791426)"
                 gradientUnits="userSpaceOnUse" />
            </defs>
            <path
               d="m 225.6976,418.9389 c 21.7526,-7.9743 47.6298,-7.2405 76.925,0.7082 1.4017,-0.8363 2.8665,-1.5416 4.3832,-2.1412 4.976,4.7914 11.7331,7.7449 19.1585,7.7449 9.6128,0 18.1049,-4.9492 23.0626,-12.4293 13.825,-0.0511 25.4569,1.8661 29.1787,6.0638 6.8986,18.8697 4.3988,35.4262 -5.8883,50.0657 -17.1426,7.5618 -42.0588,7.216 -73.7604,-0.0324 l 0.0463,-0.0284 c -14.9692,-3.6617 -29.9329,-6.3457 -45.1584,-6.8392 -5.0346,-0.1006 -34.1562,0.7063 -34.2653,6.918 l 0.147,0.6343 0.0474,0.0709 c -0.1126,-0.1271 -0.2099,-0.2546 -0.2864,-0.3831 -6.8931,-17.5263 -4.4784,-34.2876 6.4101,-50.3522 z"
               style="fill:url(#grad2)"
               id="path18"
               inkscape:connector-curvature="0" />
            <defs
               id="defs25">
              <linearGradient
                 id="grad3"
                 gradientTransform="scale(2.4855673,0.40232264)"
                 x1="88.660881"
                 y1="1150.0575"
                 x2="119.16475"
                 y2="1150.0575"
                 gradientUnits="userSpaceOnUse">
                <stop
                   offset="0%"
                   stop-color="#8b1310"
                   stop-opacity="1.0000"
                   id="stop20" />
                <stop
                   offset="100%"
                   stop-color="#b70814"
                   stop-opacity="1.0000"
                   id="stop22" />
              </linearGradient>
            </defs>
            <path
               d="m 296.1733,468.3169 c -0.007,-0.002 -0.0138,-0.003 -0.0208,-0.005 -7.6642,1.9643 -15.6881,3.7178 -23.5412,4.9484 -3.3051,0.3408 -7.0175,0.737 -11.1088,1.1923 -18.7606,2.0875 -41.1482,-2.6729 -41.1299,-5.519 0.0183,-2.8462 14.0609,-6.2472 31.9717,-6.2394 13.6698,0.006 29.5569,2.811 43.8477,5.6108 z"
               style="fill:url(#grad3)"
               id="path27"
               inkscape:connector-curvature="0" />
            <path
               d="m 302.6226,419.6471 c 0.007,-0.004 0.0132,-0.008 0.0199,-0.0117 0.006,10e-4 0.0131,0.003 0.0195,0.005 l -0.002,-0.0147 c 1.3905,-0.8267 2.8429,-1.5249 4.3464,-2.1194 1.5576,1.4998 3.2897,2.8179 5.1621,3.9234 -3.2163,-0.5657 -6.4081,-1.1678 -9.5455,-1.7824 z m 46.6043,-6.8256 c 9.2443,-0.0338 17.5077,0.8124 23.0815,2.6322 2.9676,1.2718 4.8251,2.3972 4.8205,3.1053 -0.0183,2.8461 -13.2076,6.444 -31.1182,6.4363 -4.1501,-0.002 -8.4627,-0.238 -12.8559,-0.6436 6.6636,-1.7472 12.3592,-5.9285 16.0721,-11.5302 z"
               style="fill:#b70814;fill-rule:evenodd"
               id="path29"
               inkscape:connector-curvature="0" />
            <path
               d="m 242.3874,425.3828 c -2.0927,-0.4885 -9.9354,0.2838 -11.9734,0.8257 -2.038,0.5419 -3.2095,1.6085 -3.6241,3.7159 -1.2941,6.5783 -1.8437,13.5187 -2.2479,20.5979 -0.2193,3.8396 0.997,5.1069 3.8535,4.1746 1.2305,-0.4017 2.7774,-0.734 4.1676,-1.022 1.7875,-0.3702 3.3568,-0.7021 4.0786,-0.8069 0.9382,-0.1364 2.1573,-0.1243 2.658,-0.4401 0.6696,-0.4224 1.3241,-5.4929 1.2068,-5.3921 -0.392,0.3364 -2.8093,0.7594 -5.1407,1.165 -2.2962,0.3996 -4.5076,0.7873 -4.8726,0.4905 -0.7564,-0.6152 -0.1482,-4.4488 0.2878,-7.2523 0.7286,-0.2198 1.6578,-0.3929 2.5438,-0.5219 1.5588,-0.227 3.0872,-0.1642 3.4579,-0.4959 0.5907,-0.5285 0.5218,-3.1139 0.7419,-4.6707 -2.3022,-0.1153 -4.3389,0.0362 -6.11,0.4545 0.4024,-1.6917 0.075,-4.136 1.4064,-5.1585 1.3315,-1.0224 7.7732,-0.3087 8.5305,-0.952 0.7573,-0.6434 0.7239,-3.1302 1.0359,-4.7117 z"
               style="fill:#ffffff;fill-rule:evenodd"
               id="path31"
               inkscape:connector-curvature="0" />
            <path
               d="m 248.8252,451.6117 c 0,0 -1.2266,0.0228 -0.2966,-6.0514 0.5538,-3.6174 1.2794,-9.4545 1.8554,-13.9423 0.4071,-3.1715 0.9555,-5.6339 0.6363,-6.0513 -0.7711,-1.0085 -5.1615,1.4239 -5.1615,1.4239 0,0 0.4745,-0.0158 -0.2966,4.9242 -0.4218,2.7014 -1.3585,8.6303 -2.0694,13.1689 -0.681,4.3479 -0.7481,6.5233 0.3129,6.5514 2.6633,0.0631 5.065,-0.0537 5.0195,-0.0234 z"
               style="fill:#ffffff;fill-rule:evenodd"
               id="path33"
               inkscape:connector-curvature="0" />
            <path
               d="m 256.6631,451.5131 -4.489,-0.2088 c 0,0 -1.566,0.2088 -0.9918,-2.7665 0.5742,-2.9753 0.8874,-4.8544 1.6704,-8.2995 0.7829,-3.445 1.4186,-5.481 1.2146,-5.8693 -0.2039,-0.3882 -0.2854,-0.4291 -0.2854,-0.4291 0,0 0.3875,-0.1227 1.285,-0.4089 0.8975,-0.2861 2.5904,-1.2875 3.4266,-1.0832 0.8363,0.2044 0.5916,1.4921 0.5916,1.4921 0,0 3.753,-2.4119 5.6499,-1.8191 1.8968,0.5927 2.2844,2.3505 2.2844,2.3505 0,0 4.5711,-2.7104 7.3384,-1.8048 2.7673,0.9057 2.6918,5.1824 2.4403,6.8177 -0.2516,1.6352 -1.4843,8.6541 -1.6101,9.9622 -0.1258,1.3082 -0.2012,2.1384 0,2.5661 0.2013,0.4277 0.3774,0.6289 0.3774,0.6289 l -3.7485,-0.2012 c 0,0 -1.4842,0.0503 -1.4339,-1.5598 0.0503,-1.6101 0.6037,-4.3019 1.0063,-5.8868 0.4025,-1.5849 1.4842,-6.9434 -0.4529,-7.044 -1.9371,-0.1007 -3.0692,1.9874 -4.0251,5.4591 -0.956,3.4717 -1.4088,5.912 -1.2579,6.8931 0.1509,0.9811 0.5535,1.7358 0.5535,1.7358 l -4.2265,-0.2264 c 0,0 -1.2578,-0.1006 -1.0817,-1.8365 0.1761,-1.7358 0.7547,-4.6792 1.1572,-6.3144 0.4025,-1.6352 1.1572,-6.239 -0.6541,-6.2893 -1.8113,-0.0504 -3.044,2.0125 -3.9497,5.2578 -0.9056,3.2453 -1.4088,6.3397 -1.3333,7.3208 0.0755,0.9811 0.5443,1.5635 0.5443,1.5635 z"
               style="fill:#ffffff;fill-rule:evenodd"
               id="path35"
               inkscape:connector-curvature="0" />
            <path
               d="m 292.8603,454.29 c 0,0 -1.0211,-0.4766 -0.7488,-2.5187 0.2722,-2.0422 1.0891,-5.0034 1.8379,-8.5091 0.7488,-3.5057 1.3955,-5.7521 1.2253,-6.0925 -0.1702,-0.3404 -3.5738,-2.9951 -8.3729,-2.0081 -1.7995,0.3701 -3.7642,1.7491 -5.2964,3.663 -2.5536,3.1894 -4.1485,7.7436 -3.5531,10.7003 0.9529,4.7309 5.1736,5.0033 6.8413,4.6289 1.6678,-0.3744 2.1784,-1.5997 2.1784,-1.5997 0,0 0.2042,2.791 3.0632,2.9952 2.8591,0.2042 2.8251,-1.2593 2.8251,-1.2593 z m -4.1865,-15.3844 c -0.8805,-0.0638 -2.5019,1.2935 -3.7401,3.1129 -1.3222,1.9426 -2.1532,4.2179 -2.1393,5.8977 0.008,0.9423 0.1415,1.8142 0.9441,2.0511 0.9719,0.2869 1.988,-0.1154 2.8553,-1.2532 2.3221,-3.0461 3.7897,-9.6848 2.08,-9.8085 z"
               style="fill:#ffffff;fill-rule:evenodd"
               id="path37"
               inkscape:connector-curvature="0" />
            <path
               d="m 321.8196,432.8922 c -0.3732,-1.2494 -6.3458,-3.7077 -11.3369,-1.8539 -4.9911,1.8539 -8.7702,6.1319 -9.9109,14.6168 -0.597,4.4411 0.84,7.7765 2.8393,9.9763 1.8202,2.0027 4.1288,3.0537 5.3604,3.357 1.1244,0.277 2.7549,0.5745 4.3308,0.6267 2.23,0.0738 4.3191,-0.3098 4.6532,-0.7693 0.5702,-0.7841 2.4242,-5.7041 1.2121,-6.1319 -1.2121,-0.4278 -2.6382,1.4261 -5.5615,1.2121 -2.9234,-0.2139 -6.7737,-1.9964 -6.845,-7.4866 -0.0713,-5.4902 3.9929,-10.8378 7.6293,-10.8378 3.6364,0 4.3374,2.163 5.925,1.6837 1.0222,-0.3087 2.0774,-3.1438 1.7042,-4.3931 z"
               style="fill:#ffffff;fill-rule:evenodd"
               id="path39"
               inkscape:connector-curvature="0" />
            <path
               d="m 324.4431,436.2005 c 0,0 1.4164,-0.5753 2.5671,-0.8852 1.1508,-0.3098 3.054,-1.195 2.7442,0.5754 -0.3098,1.7704 -1.3278,7.5243 -1.3278,7.5243 0,0 3.3638,-2.5671 5.9309,-1.8589 2.5671,0.7081 2.7884,4.7801 2.5229,7.48 -0.2656,2.6999 -1.1066,6.6834 -1.3721,8.4095 -0.2656,1.7262 -0.3984,3.0098 -0.0885,3.4081 0.3098,0.3984 0.5311,0.6197 0.5311,0.6197 0,0 -1.2393,-0.0886 -2.3901,-0.0886 -1.1508,0 -3.0097,0.2656 -2.9654,-1.5933 0.0442,-1.859 0.7966,-4.5146 1.1507,-7.3916 0.3541,-2.8769 0.4869,-5.5768 -1.1507,-5.4883 -1.6377,0.0885 -3.0983,2.6557 -3.895,6.3735 -0.7967,3.7179 -1.0622,5.8867 -0.7967,6.6834 0.2656,0.7967 0.5754,1.1508 0.5754,1.1508 0,0 -1.7704,-0.2213 -2.9655,-0.2213 -1.195,0 -3.1425,0.3541 -2.7884,-2.3016 0.3541,-2.6556 1.1951,-7.303 2.1688,-12.1274 0.9737,-4.8244 1.8147,-8.6751 1.7704,-9.2947 -0.0442,-0.6197 -0.2213,-0.9738 -0.2213,-0.9738 z"
               style="fill:#ffffff;fill-rule:evenodd"
               id="path41"
               inkscape:connector-curvature="0" />
            <path
               d="m 344.5695,461.3246 c 0,0 -2.1603,0.209 -3.4147,0.209 -1.2544,0 -2.5087,0.2091 -2.3693,-1.8467 0.1393,-2.0557 0.5575,-6.7945 0.9059,-9.6168 0.3484,-2.8223 0.5816,-4.9395 0.5548,-5.414 -0.0268,-0.4745 -0.3806,-0.6836 -0.3806,-0.6836 0,0 1.6376,-0.8014 2.7875,-1.2892 1.1498,-0.4878 2.5436,-1.1498 2.5087,0.3484 -0.0348,1.4983 -0.3833,5.7144 -0.7317,9.6168 -0.3484,3.9025 -0.7666,6.9339 -0.4181,7.7353 0.3484,0.8014 0.5575,0.9408 0.5575,0.9408 z"
               style="fill:#ffffff;fill-rule:evenodd"
               id="path43"
               inkscape:connector-curvature="0" />
            <path
               d="m 342.938,433.7384 c 1.7988,0 3.3005,1.605 3.3426,3.5731 0.0421,1.968 -1.3907,3.5731 -3.1895,3.5731 -1.7989,0 -3.3006,-1.6051 -3.3427,-3.5731 -0.0421,-1.9681 1.3907,-3.5731 3.1896,-3.5731 z"
               style="fill:#ffffff;fill-rule:evenodd"
               id="path45"
               inkscape:connector-curvature="0" />
            <path
               d="m 348.2073,442.5423 c 0,0 1.5461,-0.773 2.5919,-1.1822 1.0458,-0.4093 2.1372,-0.864 2.319,-0.4547 0.1819,0.4092 0.091,1.0003 0.091,1.0003 0,0 2.2736,-1.5005 4.4562,-0.5002 2.1826,1.0004 5.542,5.1398 2.5464,12.9139 -1.8721,4.8587 -5.3491,5.8045 -6.5632,5.7999 -1.303,-0.005 -1.7697,-0.8061 -1.8945,-1.1163 0,0 -0.0909,2.0007 -0.3183,3.5467 -0.2274,1.5461 -0.2274,3.2285 -0.0455,3.7287 0.1819,0.5002 0.5457,0.8185 0.5457,0.8185 0,0 -2.41,0.2273 -3.5468,0.2273 -1.1368,0 -2.2736,0.1365 -2.1826,-1.7733 0.0909,-1.9098 0.5911,-6.6843 1.1822,-12.1409 0.5912,-5.4566 1.1823,-9.64 1.0914,-10.0037 -0.091,-0.3638 -0.2729,-0.864 -0.2729,-0.864 z m 4.1013,11.6407 c -0.0127,-0.2941 -0.0138,-0.739 0.0351,-1.3553 0.1252,-1.5763 0.2987,-3.8755 0.5927,-4.6924 0.4091,-1.1366 2.0462,-3.0011 3.2739,-2.5464 1.2277,0.4547 1.8189,4.1834 0.2728,7.23 -1.546,3.0465 -3.0466,3.183 -3.6377,2.6828 -0.5911,-0.5002 -0.5368,-1.3187 -0.5368,-1.3187 z"
               style="fill:#ffffff;fill-rule:evenodd"
               id="path47"
               inkscape:connector-curvature="0" />
            <path
               d="m 373.1458,442.7272 c -0.4757,0.2561 -1.1709,-0.4025 -2.1223,-0.5855 -0.9514,-0.183 -3.2567,0 -3.769,1.793 -0.5123,1.793 2.7078,1.8662 3.6958,2.1956 0.988,0.3293 4.5009,1.7564 4.2447,5.5254 -0.2561,3.769 -3.6958,5.9646 -6.3305,6.3305 -2.6346,0.3659 -5.7816,0.2927 -6.1475,-0.6587 -0.3659,-0.9514 0.0366,-3.2201 0.8416,-3.4397 0.8051,-0.2195 3.1104,0.7319 4.4643,0.5855 1.3539,-0.1463 2.9639,-1.5369 1.7564,-3.1469 -0.3395,-0.4527 -0.7997,-0.5924 -1.2851,-0.725 -1.2409,-0.339 -2.8499,-0.2301 -4.533,-2.2024 -2.3418,-2.7443 -1.2076,-6.733 1.2807,-8.3431 2.4883,-1.61 6.9891,-1.8662 7.7942,-1.1343 0.4025,0.3659 0.3659,1.2532 0.3522,2.0812 -0.0137,0.8279 -0.005,1.5963 -0.2425,1.7244 z"
               style="fill:#ffffff;fill-rule:evenodd"
               id="path49"
               inkscape:connector-curvature="0" />
          </g>
          <path
             d="m 312.5155,383.709 a 4.2323,4.2323 0 0 1 4.2323,4.2324 4.2323,4.2323 0 1 1 -4.2323,-4.2324 z"
             style="fill:#e30016;fill-rule:evenodd"
             id="path52"
             inkscape:connector-curvature="0" />
          <path
             d="m 343.0372,395.348 a 4.2323,4.2323 0 0 1 4.2323,4.2323 4.2323,4.2323 0 1 1 -4.2323,-4.2323 z"
             style="fill:#e30016;fill-rule:evenodd"
             id="path54"
             inkscape:connector-curvature="0" />
          <path
             d="m 333.6772,392.8248 a 3.4184,3.4184 0 0 1 3.4184,3.4185 3.4184,3.4184 0 1 1 -3.4184,-3.4185 z"
             style="fill:#1b1918;fill-rule:evenodd"
             id="path56"
             inkscape:connector-curvature="0" />
          <path
             d="m 321.5795,388.3483 a 3.4184,3.4184 0 0 1 3.4184,3.4185 3.4184,3.4184 0 1 1 -3.4184,-3.4185 z"
             style="fill:#1b1918;fill-rule:evenodd"
             id="path58"
             inkscape:connector-curvature="0" />
          <path
             d="m 332.221,407.4434 1.2303,0.1816 1.2404,0.1493 1.2492,0.1171 1.2583,0.084 1.2665,0.0508 1.26,0.0168 0.1975,-2e-4 0.1848,-10e-4 0.1846,-0.002 0.1828,-0.003 0.1833,-0.003 0.1845,-0.004 0.1831,-0.004 0.1375,-0.004 -0.3512,0.4809 -0.4081,0.5182 -0.4262,0.5033 -0.4436,0.487 -0.4612,0.4713 -0.4776,0.4542 -0.4937,0.4369 -0.5088,0.4188 -0.5244,0.4006 -0.5388,0.3818 -0.5528,0.3627 -0.5662,0.3426 -0.5791,0.3223 -0.5915,0.3012 -0.6036,0.2801 -0.6146,0.258 -0.6259,0.236 -0.6364,0.213 -0.6468,0.19 -0.6561,0.1662 -0.6651,0.1421 -0.6738,0.1171 -0.6826,0.0922 -0.6903,0.0664 -0.6978,0.0401 -0.6982,0.0135 -0.9403,-0.0238 -0.9202,-0.0704 -0.9062,-0.1157 -0.8916,-0.1601 -0.8762,-0.2028 -0.8591,-0.245 -0.8417,-0.2858 -0.8234,-0.3258 -0.8037,-0.364 -0.7823,-0.4017 -0.7605,-0.4379 -0.7371,-0.4736 -0.7128,-0.5074 -0.6868,-0.5402 -0.6599,-0.572 -0.6322,-0.6031 -0.6031,-0.6322 -0.572,-0.6598 -0.5401,-0.6868 -0.5075,-0.7129 -0.4735,-0.7371 -0.4379,-0.7605 -0.4017,-0.7823 -0.3641,-0.8037 -0.3258,-0.8233 -0.2857,-0.8418 -0.245,-0.8591 -0.2029,-0.8762 -0.1601,-0.8915 -0.1157,-0.9064 -0.0703,-0.9199 -0.0243,-0.958 7e-4,-0.157 0.003,-0.1789 0.004,-0.1793 0.006,-0.1802 0.008,-0.1778 0.01,-0.1777 0.0113,-0.1776 0.0133,-0.1779 0.0136,-0.1645 0.2882,0.2605 0.9017,0.7758 0.9217,0.7534 0.9405,0.7305 0.9589,0.7071 0.9771,0.6834 0.995,0.6593 1.0124,0.6349 1.0293,0.6097 1.0458,0.5845 1.062,0.5582 1.0773,0.532 1.0924,0.5051 1.1072,0.4781 1.1216,0.4503 1.1354,0.4224 1.1489,0.3936 1.1617,0.3649 1.1747,0.3352 1.1866,0.3055 1.1982,0.2749 1.2089,0.2444 z m 13.0414,-2.0621 c -3.0827,7.4181 -10.4086,12.658 -18.9201,12.658 -11.2787,0 -20.4774,-9.1987 -20.4774,-20.4772 0,-2.1722 0.3427,-4.2667 0.9742,-6.2336 8.213,8.8439 19.9286,14.3938 32.9011,14.3938 1.8693,0 3.7117,-0.1173 5.5222,-0.341 z"
             style="fill:#1b1918;fill-rule:evenodd"
             id="path60"
             inkscape:connector-curvature="0" />
          <path
             d="m 323.3148,399.82 c -0.1336,0.0487 -0.2771,0.0757 -0.4271,0.0757 -0.6894,0 -1.252,-0.5627 -1.252,-1.252 0,-0.5872 0.4083,-1.0823 0.9551,-1.2163 0.5552,-0.176 1.1454,-0.2711 1.7575,-0.2711 2.1347,0 4.0077,1.1548 5.0271,2.8719 l -0.0277,0.0162 c 0.0466,0.1308 0.0724,0.2718 0.0724,0.4183 0,0.6893 -0.5623,1.2519 -1.252,1.2519 -0.3707,0 -0.705,-0.1631 -0.9347,-0.4208 l -0.0125,0.007 c -0.0181,-0.0305 -0.0368,-0.0609 -0.0558,-0.0908 -2e-4,-10e-5 -3e-4,-2e-4 -4e-4,-4e-4 -3e-4,-4e-4 -6e-4,-9e-4 -8e-4,-0.001 -0.0263,-0.0353 -0.0506,-0.0717 -0.0731,-0.1095 -0.6039,-0.8688 -1.608,-1.439 -2.7425,-1.439 -0.3602,0 -0.7068,0.0576 -1.0321,0.1639 z"
             style="fill:#1b1918;fill-rule:evenodd"
             id="path62"
             inkscape:connector-curvature="0" />
          <path
             d="m 324.8281,382.658 c 0,0 -0.7466,0.1941 -1.0602,0.2986 -0.3136,0.1045 -0.657,0.3136 -0.657,0.0747 0,-0.239 0.1642,-0.3883 0.1941,-0.5376 0.0299,-0.1493 0.0448,-0.2987 -0.2539,-0.2987 -0.2986,0 -0.2688,-0.0597 -0.4778,-0.4032 -0.2091,-0.3434 -0.3733,-0.5525 -0.3584,-0.881 0.0149,-0.3285 0.0149,-0.4629 -0.2837,-0.7018 -0.2987,-0.239 -0.672,-0.3734 -0.687,-0.5974 -0.0149,-0.224 0.1195,-0.5823 -0.0149,-0.8213 -0.1344,-0.2389 -0.4181,-0.209 -0.3882,-0.5376 0.0298,-0.3285 -0.1046,-0.8362 0.1194,-0.9706 0.224,-0.1344 0.9856,-0.4629 0.9856,-0.4629 5.9769,-2.4424 15.8214,-3.033 25.614,-0.3234 0.1679,0.0442 0.3967,0.029 0.5037,0.1326 0.1069,0.1036 -0.0723,0.2353 0.0175,0.3725 0.0897,0.1373 0.3126,0.245 0.4766,0.3832 0.164,0.1381 0.3316,0.3632 0.5073,0.4462 0.1757,0.083 0.3076,-0.0558 0.4901,0.0253 0.1826,0.0811 0.4075,0.268 0.5555,0.4394 0.148,0.1714 0.2645,0.2929 0.3155,0.5692 0.051,0.2763 -0.2267,0.697 -0.0187,1.0353 0.208,0.3384 0.8199,0.5127 1.1183,0.7533 0.2984,0.2405 0.5275,0.366 0.6631,0.6833 0.1356,0.3172 -0.0929,0.6756 0.1054,1.1129 0.1983,0.4374 0.9994,0.8224 1.0443,1.2962 0.045,0.4738 -0.6393,-0.2219 -0.9589,-0.3958 -9.1839,-3.2609 -18.3679,-3.6866 -27.5517,-0.6914 z m 1.5142,-15.8923 c 3.4369,0.0482 6.7205,0.4799 9.6676,1.7547 0.4061,0.1773 0.8121,0.3545 1.2182,0.5316 0.0337,0.1059 -0.0288,0.2425 0.1012,0.3174 0.13,0.0749 0.3609,0.007 0.5638,0.0659 0.2029,0.0584 0.3018,-0.044 0.6406,0.2812 0.3389,0.3252 1.0234,1.3079 1.3517,1.6306 0.3282,0.3228 0.4248,-0.025 0.5845,0.2723 0.1597,0.2973 0.1674,1.0443 0.2872,1.3503 0.1199,0.3061 0.2411,0.1203 0.4094,0.4285 0.1683,0.3082 0.7368,1.2604 0.7257,1.4886 -0.0112,0.2281 -1.0367,-0.3759 -1.4898,-0.4997 -4.3809,-1.1976 -9.0252,-1.3271 -14.0601,-1.2403 -13.4476,0 -24.4153,10.9679 -24.4153,24.4153 0,13.4474 10.9677,24.4152 24.4153,24.4152 13.4473,0 24.4152,-10.9678 24.4152,-24.4152 -0.9642,-8.1134 -5.8921,-10.9519 -13.5529,-9.2931 -1.596,0.3454 -3.1919,1.0961 -5.018,1.9901 -0.307,0.2203 -0.7808,0.738 -0.9838,0.5604 -0.203,-0.1775 0.007,-0.6071 -0.1121,-0.8884 -0.1191,-0.2813 -0.4205,-0.3684 -0.5175,-0.6463 -0.097,-0.2779 0.24,-0.3759 -0.0357,-0.9383 -0.2757,-0.5625 -1.048,-1.5606 -1.572,-2.3407 -0.5105,-0.7583 -0.4347,-1.3319 0.2276,-1.721 2.458,-1.0449 4.7015,-1.8806 6.9273,-2.2481 11.6186,-1.9186 20.0758,2.5072 21.0182,15.5254 0,16.962 -13.8344,30.7962 -30.7963,30.7962 -16.9622,0 -30.7964,-13.8342 -30.7964,-30.7962 0,-16.9621 13.8342,-30.7964 30.7964,-30.7964 z"
             style="fill:#1b1918;fill-rule:evenodd"
             id="path64"
             inkscape:connector-curvature="0" />
        </g>
      </g>
    </g>
  </g>
</svg>
