<?xml version="1.0" encoding="UTF-8" standalone="no"?>
<svg
   xmlns:dc="http://purl.org/dc/elements/1.1/"
   xmlns:cc="http://creativecommons.org/ns#"
   xmlns:rdf="http://www.w3.org/1999/02/22-rdf-syntax-ns#"
   xmlns:svg="http://www.w3.org/2000/svg"
   xmlns="http://www.w3.org/2000/svg"
   xmlns:sodipodi="http://sodipodi.sourceforge.net/DTD/sodipodi-0.dtd"
   xmlns:inkscape="http://www.inkscape.org/namespaces/inkscape"
   xml:space="preserve"
   width="700"
   height="700"
   viewBox="0 0 700 700"
   version="1.1"
   id="svg16"
   sodipodi:docname="nissin-logo.svg"
   inkscape:version="0.92.0 r15299"
   inkscape:export-filename="C:\Users\suitedoalex\sites\nissin-logo-0.png"
   inkscape:export-xdpi="561.73712"
   inkscape:export-ydpi="561.73712"><metadata
     id="metadata22"><rdf:RDF><cc:Work
         rdf:about=""><dc:format>image/svg+xml</dc:format><dc:type
           rdf:resource="http://purl.org/dc/dcmitype/StillImage" /><dc:title></dc:title></cc:Work></rdf:RDF></metadata><defs
     id="defs20" /><sodipodi:namedview
     pagecolor="#ffffff"
     bordercolor="#666666"
     borderopacity="1"
     objecttolerance="10"
     gridtolerance="10"
     guidetolerance="10"
     inkscape:pageopacity="0"
     inkscape:pageshadow="2"
     inkscape:window-width="1920"
     inkscape:window-height="1017"
     id="namedview18"
     showgrid="false"
     inkscape:zoom="0.39883269"
     inkscape:cx="672.4761"
     inkscape:cy="334.59648"
     inkscape:window-x="-8"
     inkscape:window-y="-8"
     inkscape:window-maximized="1"
     inkscape:current-layer="svg16" /><path
     d="m 76.907439,213.43936 c 0,150.82383 122.284681,273.12127 273.113831,273.12127 150.81745,0 273.07129,-122.29744 273.07129,-273.12127 z"
     id="path2"
     inkscape:connector-curvature="0"
     style="fill:#ff0000;stroke-width:1.06346524"
     inkscape:export-filename="C:\Users\suitedoalex\sites\nissin-logo-4.png"
     inkscape:export-xdpi="70.305824"
     inkscape:export-ydpi="70.305824" /><path
     d="m 319.17652,315.33636 c 4.61438,1.35485 9.28406,5.59913 9.37551,10.6187 0.11805,7.5591 -6.43502,11.04939 -12.67438,11.04939 l -1.3038,0.1223 h -34.7264 v 25.28071 h 34.7264 l 6.97633,-0.0394 c 19.49438,0 35.29535,-15.47236 35.29535,-34.57857 0,-12.05226 -4.55802,-22.3264 -14.11963,-28.5179 l -2.34388,-2.1216 c -7.04546,-4.21772 -11.35462,-5.72571 -11.35462,-5.72571 l -8.50985,-3.6732 c -7.99194,-2.71078 -11.31633,-4.94511 -11.31633,-11.04621 0,-6.13513 5.07273,-11.09301 11.31633,-11.09301 l 1.28999,-0.13931 h 28.20416 v -25.2456 h -28.20416 l -6.95932,0.0223 c -19.51884,0 -35.31449,15.5032 -35.31449,34.56475 0,12.03949 6.27019,22.6752 15.81266,28.85819 0,0 12.36492,6.93592 15.10547,7.60802 l 8.3014,3.73383 z"
     id="path4"
     inkscape:connector-curvature="0"
     style="fill:#ffffff;stroke-width:1.06346524"
     inkscape:export-filename="C:\Users\suitedoalex\sites\nissin-logo-4.png"
     inkscape:export-xdpi="70.305824"
     inkscape:export-ydpi="70.305824" /><path
     d="m 389.32057,340.63832 c 4.63139,1.37719 9.29787,5.61191 9.42017,10.59637 0.12124,7.58143 -6.46161,11.0462 -12.68927,11.0462 l -1.28041,0.12656 h -34.76042 v 25.21901 h 34.76042 l 6.954,-0.0255 c 19.5114,0 35.30598,-15.44577 35.30598,-34.53604 0,-12.00865 -4.54844,-22.27853 -14.12175,-28.4562 l -2.34388,-2.12693 c -7.09331,-4.23472 -11.35462,-5.73846 -11.35462,-5.73846 l -8.53537,-3.64237 c -7.99194,-2.74055 -11.30783,-4.95894 -11.30783,-11.06216 0,-6.13088 5.08549,-11.06749 11.30783,-11.06749 l 1.28041,-0.1308 h 28.22118 V 265.63 h -35.16135 c -19.50715,0 -35.29216,15.47661 -35.29216,34.52646 0,12.03418 6.26806,22.65394 15.81054,28.83161 0,0 12.35215,6.93592 15.07994,7.60697 l 8.28758,3.73914 z"
     id="path6"
     inkscape:connector-curvature="0"
     style="fill:#ffffff;stroke-width:1.06346524"
     inkscape:export-filename="C:\Users\suitedoalex\sites\nissin-logo-4.png"
     inkscape:export-xdpi="70.305824"
     inkscape:export-ydpi="70.305824" /><rect
     width="26.352671"
     height="96.839142"
     x="434.6178"
     y="265.5683"
     id="rect8"
     style="fill:#ffffff;stroke-width:1.06346524"
     inkscape:export-filename="C:\Users\suitedoalex\sites\nissin-logo-4.png"
     inkscape:export-xdpi="70.305824"
     inkscape:export-ydpi="70.305824" /><rect
     width="26.309067"
     height="96.825317"
     x="242.6804"
     y="265.58212"
     id="rect10"
     style="fill:#ffffff;stroke-width:1.06346524"
     inkscape:export-filename="C:\Users\suitedoalex\sites\nissin-logo-4.png"
     inkscape:export-xdpi="70.305824"
     inkscape:export-ydpi="70.305824" /><path
     d="m 145.83807,265.61297 v 96.81149 h 25.5891 v -51.37599 l 17.68224,28.56574 c 3.79869,6.32655 9.97743,14.24405 17.79815,18.77973 4.73242,2.72353 11.87359,5.31945 20.50999,5.31945 V 265.61298 H 201.8327 v 49.25333 l -29.98653,-49.25333 z"
     id="path12"
     inkscape:connector-curvature="0"
     style="fill:#ffffff;stroke-width:1.06346524"
     inkscape:export-filename="C:\Users\suitedoalex\sites\nissin-logo-4.png"
     inkscape:export-xdpi="70.305824"
     inkscape:export-ydpi="70.305824" /><path
     d="m 476.31628,265.61297 v 96.81149 h 25.61143 v -51.37599 l 17.65565,28.56574 c 3.84762,6.32655 10.00402,14.24405 17.79922,18.77973 4.76645,2.72353 11.88635,5.31945 20.55253,5.31945 V 265.61297 H 532.33644 V 314.8663 L 502.3063,265.61297 Z"
     id="path14"
     inkscape:connector-curvature="0"
     style="fill:#ffffff;stroke-width:1.06346524"
     inkscape:export-filename="C:\Users\suitedoalex\sites\nissin-logo-4.png"
     inkscape:export-xdpi="70.305824"
     inkscape:export-ydpi="70.305824" /></svg>